<svg enable-background="new 0 0 256 256" height="512" viewBox="0 0 256 256" width="512" xmlns="http://www.w3.org/2000/svg"><g id="Layer_23"><g><g><g><path d="m15 186v63.003c0 2.473 2.024 4.497 4.497 4.497h55.006c2.473 0 4.497-2.024 4.497-4.497v-63.003z" fill="#70d6f9"/></g></g><g><g><path d="m96 186v63.003c0 2.473 2.024 4.497 4.497 4.497h55.006c2.473 0 4.497-2.024 4.497-4.497v-63.003z" fill="#70d6f9"/></g></g><g><g><path d="m177 186v63.003c0 2.473 2.024 4.497 4.497 4.497h55.006c2.473 0 4.497-2.024 4.497-4.497v-63.003z" fill="#70d6f9"/></g></g><g><g><path d="m74.503 174.5h-55.006c-2.473 0-4.497 2.024-4.497 4.497v7.003h64v-7.003c0-2.473-2.024-4.497-4.497-4.497z" fill="#fcdd86"/></g></g><g><g><path d="m155.503 174.5h-55.007c-2.473 0-4.497 2.024-4.497 4.497v7.003h64v-7.003c.001-2.473-2.023-4.497-4.496-4.497z" fill="#fcdd86"/></g></g><g><g><path d="m236.503 174.5h-55.007c-2.473 0-4.497 2.024-4.497 4.497v7.003h64v-7.003c.001-2.473-2.023-4.497-4.496-4.497z" fill="#fcdd86"/></g></g><g><g><path d="m217.194 8.551c-4.149.773-7.419 3.976-8.208 8.041-.04.204-.325.204-.364 0-.789-4.065-4.059-7.268-8.208-8.041-.208-.039-.208-.318 0-.357 4.149-.773 7.419-3.976 8.208-8.041.04-.204.325-.204.364 0 .789 4.065 4.059 7.268 8.208 8.041.208.039.208.318 0 .357z" fill="#f5c84c"/></g></g><g><g><path d="m220.688 122.998c-2.91.542-5.204 2.789-5.757 5.64-.028.143-.228.143-.255 0-.553-2.851-2.847-5.098-5.757-5.64-.146-.027-.146-.223 0-.25 2.91-.542 5.204-2.789 5.757-5.64.028-.143.228-.143.255 0 .553 2.851 2.847 5.098 5.757 5.64.146.027.146.222 0 .25z" fill="#fc657e"/></g></g><g><g><circle cx="212.257" cy="33.377" fill="#87d147" r="3.377"/></g></g><g><g><circle cx="27.257" cy="147.377" fill="#f5c84c" r="3.377"/></g></g><g><g><path d="m44.73 118.758h-1.824v-1.824c0-1.366-1.107-2.473-2.473-2.473s-2.473 1.107-2.473 2.473v1.824h-1.824c-1.366 0-2.473 1.107-2.473 2.473s1.107 2.473 2.473 2.473h1.824v1.824c0 1.366 1.107 2.473 2.473 2.473s2.473-1.107 2.473-2.473v-1.824h1.824c1.366 0 2.473-1.107 2.473-2.473s-1.108-2.473-2.473-2.473z" fill="#70d6f9"/></g></g><g><g><path d="m61.492 33.684v82.278c0 2.684 2.176 4.86 4.86 4.86h123.297c2.684 0 4.86-2.176 4.86-4.86v-82.278z" fill="#edf4fc"/></g></g><g><g><path d="m189.648 14.5h-123.296c-2.684 0-4.86 2.176-4.86 4.86v14.324h133.016v-14.324c0-2.684-2.176-4.86-4.86-4.86z" fill="#5290db"/></g></g><g><g><path d="m82.046 14.5h-15.694c-2.684 0-4.86 2.176-4.86 4.86v14.324h20.554z" fill="#fc657e"/></g></g><g><g><path d="m162.078 26.592h-67.243c-1.381 0-2.5-1.119-2.5-2.5s1.119-2.5 2.5-2.5h67.243c1.381 0 2.5 1.119 2.5 2.5s-1.119 2.5-2.5 2.5z"/></g></g><g><g><path d="m183.81 26.592h-9.943c-1.381 0-2.5-1.119-2.5-2.5s1.119-2.5 2.5-2.5h9.943c1.381 0 2.5 1.119 2.5 2.5s-1.12 2.5-2.5 2.5z"/></g></g><g><g><path d="m189.648 123.321h-123.296c-4.058 0-7.359-3.301-7.359-7.359v-82.278c0-1.381 1.119-2.5 2.5-2.5s2.5 1.119 2.5 2.5v82.278c0 1.301 1.059 2.359 2.359 2.359h123.297c1.301 0 2.359-1.059 2.359-2.359v-82.278c0-1.381 1.119-2.5 2.5-2.5s2.5 1.119 2.5 2.5v82.278c0 4.058-3.302 7.359-7.36 7.359z"/></g></g><g><g><path d="m194.508 36.184h-133.016c-1.381 0-2.5-1.119-2.5-2.5v-14.325c0-4.058 3.301-7.359 7.359-7.359h123.297c4.058 0 7.359 3.301 7.359 7.359v14.324c.001 1.381-1.118 2.501-2.499 2.501zm-130.516-5h128.016v-11.825c0-1.301-1.059-2.359-2.359-2.359h-123.297c-1.301 0-2.359 1.059-2.359 2.359v11.825z"/></g></g><g><g><path d="m82.046 35.313c-1.381 0-2.5-1.119-2.5-2.5v-17.375c0-1.381 1.119-2.5 2.5-2.5s2.5 1.119 2.5 2.5v17.375c0 1.381-1.119 2.5-2.5 2.5z"/></g></g><g><g><path d="m74.503 256h-55.006c-3.858 0-6.997-3.139-6.997-6.997v-63.003c0-1.381 1.119-2.5 2.5-2.5s2.5 1.119 2.5 2.5v63.003c0 1.101.896 1.997 1.997 1.997h55.007c1.101 0 1.997-.896 1.997-1.997v-63.003c0-1.381 1.119-2.5 2.5-2.5s2.5 1.119 2.5 2.5v63.003c-.001 3.858-3.14 6.997-6.998 6.997z"/></g></g><g><g><path d="m67.082 200.365h-26.776c-1.381 0-2.5-1.119-2.5-2.5s1.119-2.5 2.5-2.5h26.776c1.381 0 2.5 1.119 2.5 2.5s-1.119 2.5-2.5 2.5z"/></g></g><g><g><path d="m31.334 200.365h-4.416c-1.381 0-2.5-1.119-2.5-2.5s1.119-2.5 2.5-2.5h4.416c1.381 0 2.5 1.119 2.5 2.5s-1.119 2.5-2.5 2.5z"/></g></g><g><g><path d="m67.082 211.603h-14.487c-1.381 0-2.5-1.119-2.5-2.5s1.119-2.5 2.5-2.5h14.487c1.381 0 2.5 1.119 2.5 2.5s-1.119 2.5-2.5 2.5z"/></g></g><g><g><path d="m43.479 211.603h-16.561c-1.381 0-2.5-1.119-2.5-2.5s1.119-2.5 2.5-2.5h16.561c1.381 0 2.5 1.119 2.5 2.5s-1.119 2.5-2.5 2.5z"/></g></g><g><g><path d="m67.082 222.842h-2.074c-1.381 0-2.5-1.119-2.5-2.5s1.119-2.5 2.5-2.5h2.074c1.381 0 2.5 1.119 2.5 2.5s-1.119 2.5-2.5 2.5z"/></g></g><g><g><path d="m55.991 222.842h-29.073c-1.381 0-2.5-1.119-2.5-2.5s1.119-2.5 2.5-2.5h29.073c1.381 0 2.5 1.119 2.5 2.5s-1.119 2.5-2.5 2.5z"/></g></g><g><g><path d="m67.082 234.08h-22.137c-1.381 0-2.5-1.119-2.5-2.5s1.119-2.5 2.5-2.5h22.137c1.381 0 2.5 1.119 2.5 2.5s-1.119 2.5-2.5 2.5z"/></g></g><g><g><path d="m35.821 234.08h-8.903c-1.381 0-2.5-1.119-2.5-2.5s1.119-2.5 2.5-2.5h8.903c1.381 0 2.5 1.119 2.5 2.5s-1.119 2.5-2.5 2.5z"/></g></g><g><g><path d="m67.082 245.318h-14.487c-1.381 0-2.5-1.119-2.5-2.5s1.119-2.5 2.5-2.5h14.487c1.381 0 2.5 1.119 2.5 2.5s-1.119 2.5-2.5 2.5z"/></g></g><g><g><path d="m43.479 245.318h-16.561c-1.381 0-2.5-1.119-2.5-2.5s1.119-2.5 2.5-2.5h16.562c1.381 0 2.5 1.119 2.5 2.5s-1.12 2.5-2.501 2.5z"/></g></g><g><g><path d="m155.503 256h-55.006c-3.858 0-6.997-3.139-6.997-6.997v-63.003c0-1.381 1.119-2.5 2.5-2.5s2.5 1.119 2.5 2.5v63.003c0 1.101.896 1.997 1.997 1.997h55.006c1.102 0 1.997-.896 1.997-1.997v-63.003c0-1.381 1.119-2.5 2.5-2.5s2.5 1.119 2.5 2.5v63.003c0 3.858-3.139 6.997-6.997 6.997z"/></g></g><g><g><path d="m148.082 200.365h-26.776c-1.381 0-2.5-1.119-2.5-2.5s1.119-2.5 2.5-2.5h26.776c1.381 0 2.5 1.119 2.5 2.5s-1.119 2.5-2.5 2.5z"/></g></g><g><g><path d="m112.334 200.365h-4.416c-1.381 0-2.5-1.119-2.5-2.5s1.119-2.5 2.5-2.5h4.416c1.381 0 2.5 1.119 2.5 2.5s-1.119 2.5-2.5 2.5z"/></g></g><g><g><path d="m148.082 211.603h-14.487c-1.381 0-2.5-1.119-2.5-2.5s1.119-2.5 2.5-2.5h14.487c1.381 0 2.5 1.119 2.5 2.5s-1.119 2.5-2.5 2.5z"/></g></g><g><g><path d="m124.479 211.603h-16.561c-1.381 0-2.5-1.119-2.5-2.5s1.119-2.5 2.5-2.5h16.561c1.381 0 2.5 1.119 2.5 2.5s-1.119 2.5-2.5 2.5z"/></g></g><g><g><path d="m148.082 222.842h-2.074c-1.381 0-2.5-1.119-2.5-2.5s1.119-2.5 2.5-2.5h2.074c1.381 0 2.5 1.119 2.5 2.5s-1.119 2.5-2.5 2.5z"/></g></g><g><g><path d="m136.99 222.842h-29.072c-1.381 0-2.5-1.119-2.5-2.5s1.119-2.5 2.5-2.5h29.072c1.381 0 2.5 1.119 2.5 2.5s-1.119 2.5-2.5 2.5z"/></g></g><g><g><path d="m148.082 234.08h-22.137c-1.381 0-2.5-1.119-2.5-2.5s1.119-2.5 2.5-2.5h22.137c1.381 0 2.5 1.119 2.5 2.5s-1.119 2.5-2.5 2.5z"/></g></g><g><g><path d="m116.821 234.08h-8.903c-1.381 0-2.5-1.119-2.5-2.5s1.119-2.5 2.5-2.5h8.903c1.381 0 2.5 1.119 2.5 2.5s-1.119 2.5-2.5 2.5z"/></g></g><g><g><path d="m148.082 245.318h-14.487c-1.381 0-2.5-1.119-2.5-2.5s1.119-2.5 2.5-2.5h14.487c1.381 0 2.5 1.119 2.5 2.5s-1.119 2.5-2.5 2.5z"/></g></g><g><g><path d="m124.479 245.318h-16.562c-1.381 0-2.5-1.119-2.5-2.5s1.119-2.5 2.5-2.5h16.562c1.381 0 2.5 1.119 2.5 2.5s-1.119 2.5-2.5 2.5z"/></g></g><g><g><path d="m236.503 256h-55.006c-3.858 0-6.997-3.139-6.997-6.997v-63.003c0-1.381 1.119-2.5 2.5-2.5s2.5 1.119 2.5 2.5v63.003c0 1.101.896 1.997 1.997 1.997h55.006c1.102 0 1.997-.896 1.997-1.997v-63.003c0-1.381 1.119-2.5 2.5-2.5s2.5 1.119 2.5 2.5v63.003c0 3.858-3.139 6.997-6.997 6.997z"/></g></g><g><g><path d="m229.082 200.365h-26.776c-1.381 0-2.5-1.119-2.5-2.5s1.119-2.5 2.5-2.5h26.776c1.381 0 2.5 1.119 2.5 2.5s-1.119 2.5-2.5 2.5z"/></g></g><g><g><path d="m193.334 200.365h-4.416c-1.381 0-2.5-1.119-2.5-2.5s1.119-2.5 2.5-2.5h4.416c1.381 0 2.5 1.119 2.5 2.5s-1.119 2.5-2.5 2.5z"/></g></g><g><g><path d="m229.082 211.603h-14.487c-1.381 0-2.5-1.119-2.5-2.5s1.119-2.5 2.5-2.5h14.487c1.381 0 2.5 1.119 2.5 2.5s-1.119 2.5-2.5 2.5z"/></g></g><g><g><path d="m205.479 211.603h-16.562c-1.381 0-2.5-1.119-2.5-2.5s1.119-2.5 2.5-2.5h16.562c1.381 0 2.5 1.119 2.5 2.5s-1.119 2.5-2.5 2.5z"/></g></g><g><g><path d="m229.082 222.842h-2.074c-1.381 0-2.5-1.119-2.5-2.5s1.119-2.5 2.5-2.5h2.074c1.381 0 2.5 1.119 2.5 2.5s-1.119 2.5-2.5 2.5z"/></g></g><g><g><path d="m217.99 222.842h-29.072c-1.381 0-2.5-1.119-2.5-2.5s1.119-2.5 2.5-2.5h29.072c1.381 0 2.5 1.119 2.5 2.5s-1.119 2.5-2.5 2.5z"/></g></g><g><g><path d="m229.082 234.08h-22.137c-1.381 0-2.5-1.119-2.5-2.5s1.119-2.5 2.5-2.5h22.137c1.381 0 2.5 1.119 2.5 2.5s-1.119 2.5-2.5 2.5z"/></g></g><g><g><path d="m197.821 234.08h-8.903c-1.381 0-2.5-1.119-2.5-2.5s1.119-2.5 2.5-2.5h8.903c1.381 0 2.5 1.119 2.5 2.5s-1.119 2.5-2.5 2.5z"/></g></g><g><g><path d="m229.082 245.318h-14.487c-1.381 0-2.5-1.119-2.5-2.5s1.119-2.5 2.5-2.5h14.487c1.381 0 2.5 1.119 2.5 2.5s-1.119 2.5-2.5 2.5z"/></g></g><g><g><path d="m205.479 245.318h-16.562c-1.381 0-2.5-1.119-2.5-2.5s1.119-2.5 2.5-2.5h16.562c1.381 0 2.5 1.119 2.5 2.5s-1.119 2.5-2.5 2.5z"/></g></g><g><g><path d="m47.5 176c-1.381 0-2.5-1.119-2.5-2.5v-20.563c0-4.377 3.561-7.938 7.937-7.938h22.625c1.62 0 2.938-1.318 2.938-2.938v-20.241c0-1.381 1.119-2.5 2.5-2.5s2.5 1.119 2.5 2.5v20.241c0 4.377-3.561 7.938-7.938 7.938h-22.625c-1.62 0-2.937 1.318-2.937 2.938v20.563c0 1.381-1.119 2.5-2.5 2.5z"/></g></g><g><g><path d="m208.5 176c-1.381 0-2.5-1.119-2.5-2.5v-20.563c0-1.62-1.317-2.938-2.938-2.938h-22.625c-4.377 0-7.937-3.561-7.937-7.938v-20.241c0-1.381 1.119-2.5 2.5-2.5s2.5 1.119 2.5 2.5v20.241c0 1.62 1.317 2.938 2.937 2.938h22.625c4.377 0 7.938 3.561 7.938 7.938v20.563c0 1.381-1.119 2.5-2.5 2.5z"/></g></g><g><g><path d="m128 176c-1.381 0-2.5-1.119-2.5-2.5v-51.679c0-1.381 1.119-2.5 2.5-2.5s2.5 1.119 2.5 2.5v51.679c0 1.381-1.119 2.5-2.5 2.5z"/></g></g><g><g><path d="m167.01 72.109-20.377-15.311c-2.025-1.522-4.91-1.126-6.444.915-1.524 2.028-1.114 4.919.915 6.444l15.481 11.632-15.482 11.631c-2.029 1.525-2.439 4.416-.914 6.444 1.532 2.038 4.425 2.432 6.443.915l20.378-15.312c2.449-1.84 2.452-5.514 0-7.358z" fill="#70d6f9"/></g></g><g><g><path d="m114.895 87.42-15.481-11.631 15.481-11.632c2.033-1.528 2.444-4.41.915-6.443-1.523-2.029-4.415-2.439-6.443-.915l-20.378 15.311c-1.167.877-1.837 2.219-1.837 3.68s.67 2.801 1.837 3.678l20.377 15.311c2.033 1.527 4.917 1.118 6.443-.915 1.526-2.029 1.124-4.912-.914-6.444z" fill="#70d6f9"/></g></g><g><g><path d="m136.642 50.869c-2.369-.839-5.016.377-5.874 2.801l-14.579 41.163c-.848 2.397.403 5.025 2.801 5.874 2.411.853 5.029-.416 5.874-2.801l14.579-41.163c.851-2.402-.408-5.026-2.801-5.874z" fill="#70d6f9"/></g></g><g><g><path d="m143.877 98.199c-2.158 0-4.292-.978-5.687-2.833-1.139-1.515-1.619-3.384-1.353-5.264.268-1.879 1.248-3.542 2.764-4.681l12.821-9.633-12.821-9.633c-1.515-1.139-2.496-2.801-2.764-4.68-.267-1.88.214-3.749 1.353-5.264 2.353-3.13 6.812-3.765 9.944-1.411l20.377 15.311c1.803 1.355 2.836 3.425 2.836 5.678s-1.033 4.322-2.835 5.677l-20.379 15.312c-1.275.958-2.772 1.421-4.256 1.421zm-.006-39.823c-.64 0-1.271.29-1.685.838-.336.447-.478 1-.398 1.557.079.558.37 1.05.817 1.386l15.481 11.632c.628.472.998 1.212.998 1.999s-.37 1.526-.998 1.999l-15.481 11.632c-.447.336-.737.829-.817 1.386-.079.557.063 1.11.398 1.557.697.926 2.018 1.115 2.943.419l20.379-15.312c.533-.401.839-1.013.839-1.68s-.306-1.279-.84-1.681l-20.377-15.311c-.377-.284-.819-.421-1.259-.421z"/></g></g><g><g><path d="m112.117 98.204c-1.528 0-3.008-.491-4.252-1.425l-20.378-15.313c-1.801-1.354-2.834-3.422-2.835-5.676 0-2.255 1.033-4.325 2.835-5.679l20.377-15.311c1.516-1.139 3.383-1.617 5.265-1.351 1.88.267 3.542 1.248 4.68 2.763 1.14 1.517 1.622 3.387 1.354 5.265-.267 1.877-1.249 3.539-2.766 4.679l-12.821 9.633 12.821 9.633c1.519 1.142 2.502 2.805 2.767 4.684.265 1.876-.217 3.745-1.356 5.261s-2.8 2.499-4.679 2.765c-.338.048-.677.072-1.012.072zm.007-39.827c-.452 0-.89.145-1.256.42l-20.377 15.311c-.541.407-.839 1.003-.839 1.681 0 .676.298 1.273.839 1.68l20.377 15.312c.449.337 1.002.479 1.558.401s1.047-.37 1.384-.818c.339-.45.481-1.003.403-1.558-.079-.555-.37-1.048-.82-1.386l-15.48-11.632c-.628-.472-.998-1.212-.998-1.999s.37-1.526.998-1.999l15.48-11.632c.45-.338.741-.83.82-1.385s-.063-1.108-.401-1.557c-.336-.448-.829-.738-1.386-.817-.101-.014-.202-.022-.302-.022z"/></g></g><g><g><path d="m120.52 103.473c-.785 0-1.583-.131-2.363-.407-3.691-1.308-5.631-5.375-4.325-9.066l14.579-41.164c1.307-3.691 5.373-5.63 9.064-4.324h.001c3.69 1.308 5.63 5.375 4.323 9.065l-14.579 41.164c-1.029 2.91-3.775 4.732-6.7 4.732zm14.587-50.368c-.865 0-1.679.539-1.983 1.399l-14.579 41.163c-.387 1.093.187 2.297 1.279 2.684 1.092.385 2.297-.187 2.683-1.278l14.58-41.164c.387-1.092-.188-2.296-1.279-2.684-.232-.081-.468-.12-.701-.12z"/></g></g><g><g><path d="m79 188.5h-64c-1.381 0-2.5-1.119-2.5-2.5v-7.003c0-3.858 3.139-6.997 6.997-6.997h55.007c3.858 0 6.997 3.139 6.997 6.997v7.003c-.001 1.381-1.12 2.5-2.501 2.5zm-61.5-5h59v-4.503c0-1.101-.896-1.997-1.997-1.997h-55.006c-1.101 0-1.997.896-1.997 1.997z"/></g></g><g><g><path d="m160 188.5h-64c-1.381 0-2.5-1.119-2.5-2.5v-7.003c0-3.858 3.139-6.997 6.997-6.997h55.006c3.858 0 6.997 3.139 6.997 6.997v7.003c0 1.381-1.119 2.5-2.5 2.5zm-61.5-5h59v-4.503c0-1.101-.896-1.997-1.997-1.997h-55.006c-1.101 0-1.997.896-1.997 1.997z"/></g></g><g><g><path d="m241 188.5h-64c-1.381 0-2.5-1.119-2.5-2.5v-7.003c0-3.858 3.139-6.997 6.997-6.997h55.006c3.858 0 6.997 3.139 6.997 6.997v7.003c0 1.381-1.119 2.5-2.5 2.5zm-61.5-5h59v-4.503c0-1.101-.896-1.997-1.997-1.997h-55.006c-1.102 0-1.997.896-1.997 1.997z"/></g></g></g></g></svg>