<?xml version="1.0" encoding="iso-8859-1"?>
<!-- Generator: Adobe Illustrator 19.0.0, SVG Export Plug-In . SVG Version: 6.00 Build 0)  -->
<svg version="1.1" id="Capa_1" xmlns="http://www.w3.org/2000/svg" xmlns:xlink="http://www.w3.org/1999/xlink" x="0px" y="0px"
	 viewBox="0 0 512 512" style="enable-background:new 0 0 512 512;" xml:space="preserve">
<path style="fill:#FFC107;" d="M124.885,419.115l-32-32c-3.07-3.068-7.692-3.971-11.691-2.283C6.208,416.491,0,458.005,0,501.333
	C0,507.224,4.776,512,10.667,512c43.328,0,84.843-6.208,116.48-81.195C128.841,426.811,127.946,422.189,124.885,419.115z"/>
<path style="fill:#E53935;" d="M188.885,397.781l-74.667-74.667c-2.166-2.234-5.22-3.377-8.32-3.115
	c-3.085,0.229-5.918,1.786-7.765,4.267l-32,42.667c-2.171,2.896-2.725,6.695-1.472,10.091c5.494,13.407,13.585,25.594,23.808,35.861
	l10.667,10.667c10.267,10.223,22.455,18.314,35.861,23.808c1.176,0.427,2.418,0.644,3.669,0.64c2.308,0,4.554-0.749,6.4-2.133
	l42.667-32c4.712-3.535,5.666-10.221,2.131-14.934c-0.3-0.399-0.627-0.777-0.979-1.13V397.781z"/>
<g>
	<path style="fill:#F44336;" d="M314.112,331.797c-3.609-1.803-7.927-1.415-11.157,1.003l-85.333,64
		c-2.686,2.014-4.267,5.176-4.267,8.533V480c0,5.891,4.776,10.667,10.667,10.667c2.308,0,4.554-0.749,6.4-2.133l85.333-64
		c2.686-2.014,4.267-5.176,4.267-8.533v-74.667C320.017,337.292,317.729,333.6,314.112,331.797z"/>
	<path style="fill:#F44336;" d="M180.203,197.888c-1.808-3.609-5.499-5.888-9.536-5.888H96c-3.357,0-6.519,1.581-8.533,4.267
		l-64,85.333c-3.535,4.713-2.58,11.399,2.133,14.933c1.846,1.385,4.092,2.133,6.4,2.133h74.667c3.357,0,6.519-1.581,8.533-4.267
		l64-85.333C181.626,205.832,182.014,201.503,180.203,197.888z"/>
</g>
<path style="fill:#CFD8DC;" d="M501.333,0C393.365,0,294.4,22.315,87.467,302.933c-2.65,3.589-2.786,8.449-0.341,12.181
	c13.043,19.59,27.777,38,44.032,55.019l10.667,10.667c17.019,16.255,35.429,30.989,55.019,44.032
	c3.733,2.478,8.616,2.358,12.224-0.299C489.685,217.6,512,118.635,512,10.667C512,4.776,507.224,0,501.333,0z"/>
<circle style="fill:#FAFAFA;" cx="352" cy="160" r="42.667"/>
<path style="fill:#F44336;" d="M352,213.333c-29.455,0-53.333-23.878-53.333-53.333s23.878-53.333,53.333-53.333
	c29.455,0,53.333,23.878,53.333,53.333S381.455,213.333,352,213.333z M352,128c-17.673,0-32,14.327-32,32s14.327,32,32,32
	s32-14.327,32-32S369.673,128,352,128z"/>
<g>
</g>
<g>
</g>
<g>
</g>
<g>
</g>
<g>
</g>
<g>
</g>
<g>
</g>
<g>
</g>
<g>
</g>
<g>
</g>
<g>
</g>
<g>
</g>
<g>
</g>
<g>
</g>
<g>
</g>
</svg>
