<svg width="111" height="32" viewBox="0 0 111 32" fill="none" xmlns="http://www.w3.org/2000/svg">
<path d="M46.2308 21.6568C44.9608 21.6568 43.791 21.2224 42.9889 20.32C42.2537 19.451 41.8192 18.181 41.8192 16.5434C41.8192 15.1397 42.1868 13.9031 42.9221 13.0008C43.6908 12.065 44.8605 11.5303 46.2642 11.5303C47.8684 11.5303 49.105 12.1987 49.9071 12.6666V20.6876C48.7708 21.3226 47.3671 21.6568 46.2308 21.6568ZM50.141 9.89263C49.1384 9.29105 47.601 8.68947 45.7629 8.68947C43.4568 8.68947 41.5518 9.55841 40.2818 10.9955C38.9784 12.4326 38.31 14.4045 38.31 16.5434C38.31 19.0166 39.0453 20.9884 40.3821 22.4255C41.7189 23.8626 43.6574 24.4976 45.7963 24.4976C47.1666 24.4976 48.9045 24.13 50.2747 23.261H50.3416V23.7624C50.3416 23.9963 50.5421 24.1634 50.776 24.1634H52.915C53.1489 24.1634 53.3495 23.9963 53.3495 23.7624V9.35789C53.3495 9.15736 53.1489 8.95684 52.915 8.95684H50.6424C50.4084 8.95684 50.2079 9.15736 50.2079 9.35789V9.89263H50.141Z" fill="black"/>
<path d="M58.8169 16.6103C58.8169 15.1397 59.0509 13.9366 59.5522 13.0676C60.0869 12.1318 61.0227 11.5971 62.1256 11.5971C63.1951 11.5971 63.9638 11.9647 64.4651 12.5329C65.0667 13.2681 65.334 14.371 65.334 15.6745V23.7624C65.334 23.9963 65.5346 24.1634 65.7685 24.1634H68.3419C68.5759 24.1634 68.743 23.9963 68.743 23.7624V16.4766C68.743 15.0395 68.9435 13.8363 69.4782 12.9674C70.013 12.0984 70.9488 11.5971 72.0517 11.5971C73.1211 11.5971 73.8898 11.9647 74.3911 12.5329C74.9927 13.2681 75.2601 14.371 75.2601 15.6745V23.7624C75.2601 23.9963 75.4606 24.1634 75.6946 24.1634H78.268C78.5019 24.1634 78.669 23.9963 78.669 23.7624V14.8055C78.669 12.5997 78.0674 11.0958 77.0648 10.16C75.9619 9.12394 74.4245 8.68947 72.8538 8.68947C71.7174 8.68947 70.6814 8.88999 69.8124 9.39131C68.8767 9.92605 68.2417 10.6947 67.8072 11.3631C67.4396 10.5945 66.838 9.95947 66.0693 9.49157C65.1335 8.92341 64.064 8.68947 62.9277 8.68947C61.2901 8.68947 59.7861 9.25763 58.8169 10.3939H58.7167V9.35789C58.7167 9.15736 58.5161 8.95684 58.2822 8.95684H55.809C55.5751 8.95684 55.3746 9.15736 55.3746 9.35789V23.7624C55.3746 23.9963 55.5751 24.1634 55.809 24.1634H58.4159C58.6498 24.1634 58.8169 23.9963 58.8169 23.7624V16.6103Z" fill="black"/>
<path d="M80.4795 9.35789V23.7624C80.4795 23.9963 80.68 24.1634 80.914 24.1634H83.5208C83.7548 24.1634 83.9219 23.9963 83.9219 23.7624V9.35789C83.9219 9.15736 83.7548 8.95684 83.5208 8.95684H80.914C80.68 8.95684 80.4795 9.15736 80.4795 9.35789ZM82.184 3.9771C83.2869 3.9771 84.1892 3.10816 84.1892 1.97184C84.1892 0.868947 83.2869 0 82.184 0C81.0811 0 80.1787 0.868947 80.1787 1.97184C80.1787 3.10816 81.0811 3.9771 82.184 3.9771Z" fill="black"/>
<path d="M89.9121 11.6639H94.6578C94.8584 11.6639 95.0589 11.4634 95.0589 11.2629V9.35789C95.0589 9.15736 94.8584 8.95684 94.6578 8.95684H89.9121V5.98236C89.9121 5.78184 89.7115 5.58131 89.511 5.58131H86.9042C86.6702 5.58131 86.4697 5.78184 86.4697 5.98236V8.95684H85.5652C85.3313 8.95684 85.1308 9.15736 85.1308 9.35789V11.2629C85.1308 11.4634 85.3313 11.6639 85.5652 11.6639H86.4697V18.9497C86.4697 20.4871 86.7371 21.991 87.606 23.0271C88.3413 23.9295 89.5444 24.4976 91.416 24.4976C93.1873 24.4976 94.8584 23.9963 96.0615 23.1274C96.2621 22.9937 96.3289 22.7931 96.2286 22.5926L95.3597 20.721C95.226 20.4871 94.9921 20.4537 94.7247 20.6542C93.8557 21.3226 93.0536 21.5566 92.285 21.5566C91.2823 21.5566 90.6807 21.2224 90.3131 20.5874C90.0457 20.086 89.9121 19.3842 89.9121 18.5152V11.6639Z" fill="black"/>
<path d="M110.401 9.52499C110.468 9.29105 110.501 8.95684 110.1 8.95684H107.192C106.825 8.95684 106.624 9.09052 106.524 9.42473L102.547 20.8547L98.0015 9.42473C97.9013 9.09052 97.7007 8.95684 97.3331 8.95684H94.1915C93.757 8.95684 93.757 9.29105 93.8573 9.52499L100.775 25.1326C100.274 26.2021 99.706 27.0042 99.1044 27.6058C98.3023 28.3745 97.3331 28.7755 96.2636 28.7755C95.8626 28.7755 95.662 28.7421 95.4281 28.7421C95.2276 28.7421 95.0605 28.8423 95.0605 29.0429V31.6497C95.0605 31.8502 95.1941 31.9839 95.3947 31.9839C97.9681 32.1176 100.007 31.4158 101.511 29.9452C102.747 28.7755 103.683 27.071 104.485 24.9989L110.401 9.52499Z" fill="black"/>
<path d="M15.0282 0.328486L10.7853 4.57143C10.3473 5.00941 10.3473 5.69376 10.7853 6.13174L11.5517 6.8982C11.9897 7.33619 12.6741 7.33619 13.112 6.8982L15.8221 4.1882L18.5321 6.8982C18.97 7.33619 19.6544 7.33619 20.0924 6.8982L20.8588 6.13174C21.2968 5.69376 21.2968 5.00941 20.8588 4.57143L16.5885 0.328486C16.1505 -0.109495 15.4662 -0.109495 15.0282 0.328486Z" fill="#03A67A"/>
<path d="M28.1951 16.5885C27.7571 16.1505 27.7571 15.4662 28.1951 15.0282L28.9616 14.2617C29.3996 13.8237 30.0839 13.8237 30.5219 14.2617L31.2884 15.0282C31.7263 15.4662 31.7263 16.1505 31.2884 16.5885L30.5219 17.355C30.0839 17.7929 29.3996 17.7929 28.9616 17.355L28.1951 16.5885Z" fill="#03A67A"/>
<path d="M0.328547 23.5415C-0.109434 23.1035 -0.109434 22.4192 0.328547 21.9812L1.09501 21.2147C1.533 20.7767 2.21734 20.7767 2.65532 21.2147L3.42179 21.9812C3.85977 22.4192 3.85977 23.1035 3.42179 23.5415L2.65532 24.308C2.21734 24.7459 1.533 24.7459 1.09501 24.308L0.328547 23.5415Z" fill="#03A67A"/>
<path d="M21.2145 9.60814C20.7766 9.17016 20.7766 8.48581 21.2145 8.04783L21.981 7.28137C22.419 6.84339 23.1033 6.84339 23.5413 7.28137L24.3078 8.04783C24.7458 8.48581 24.7458 9.17016 24.3078 9.60814L23.5413 10.402C23.1033 10.84 22.419 10.84 21.981 10.402L21.2145 9.60814Z" fill="#03A67A"/>
<path d="M1.09503 29.7553C0.657045 29.3173 0.657045 28.633 1.09503 28.195L4.5715 24.7185C5.00948 24.2805 5.69383 24.2805 6.13181 24.7185L6.89828 25.485C7.33626 25.9229 7.33626 26.6073 6.89828 27.0453L3.4218 30.5218C2.98382 30.9597 2.29947 30.9597 1.86149 30.5218L1.09503 29.7553Z" fill="#03A67A"/>
<path d="M24.7186 13.0847C24.2806 12.6467 24.2806 11.9624 24.7186 11.5244L25.485 10.7579C25.923 10.3199 26.6074 10.3199 27.0453 10.7579L27.8118 11.5244C28.2498 11.9624 28.2498 12.6467 27.8118 13.0847L27.0453 13.8512C26.6074 14.2892 25.923 14.2892 25.485 13.8512L24.7186 13.0847Z" fill="#03A67A"/>
<path d="M6.89819 30.905C6.46021 30.467 6.46021 29.7827 6.89819 29.3447L11.5517 24.6912C11.9897 24.2532 12.6741 24.2532 13.112 24.6912L13.8785 25.4576C14.3165 25.8956 14.3165 26.58 13.8785 27.0179L9.22496 31.6715C8.78698 32.1095 8.10264 32.1095 7.66466 31.6715L6.89819 30.905Z" fill="#03A67A"/>
<path d="M9.60821 24.3353C9.17023 24.7733 8.48589 24.7733 8.04791 24.3353L0.328486 16.5885C-0.109495 16.1505 -0.109495 15.4662 0.328486 15.0282L1.09495 14.2617C1.53293 13.8237 2.21728 13.8237 2.65526 14.2617L10.4021 22.0085C10.84 22.4465 10.84 23.1308 10.4021 23.5688L9.60821 24.3353Z" fill="#04BE8C"/>
<path d="M23.9247 31.6715C23.4867 32.1095 22.8024 32.1095 22.3644 31.6715L3.80493 13.0847C3.36695 12.6467 3.36695 11.9624 3.80493 11.5244L4.57139 10.7579C5.00937 10.3199 5.69372 10.3199 6.1317 10.7579L24.7185 29.3448C25.1565 29.7827 25.1565 30.4671 24.7185 30.9051L23.9247 31.6715Z" fill="#04BE8C"/>
<path d="M29.7554 30.5217C29.3174 30.9597 28.6331 30.9597 28.1951 30.5217L7.28149 9.60814C6.84351 9.17016 6.84351 8.48581 7.28149 8.04783L8.04796 7.28137C8.48594 6.84339 9.17028 6.84339 9.60826 7.28137L30.5219 28.195C30.9598 28.6329 30.9598 29.3173 30.5219 29.7553L29.7554 30.5217Z" fill="#04BE8C"/>
<path d="M30.522 24.3353C30.084 24.7732 29.3997 24.7732 28.9617 24.3353L14.262 9.60814C13.824 9.17016 13.824 8.48581 14.262 8.04783L15.0284 7.28137C15.4664 6.84339 16.1508 6.84339 16.5887 7.28137L31.2885 21.9811C31.7265 22.4191 31.7265 23.1034 31.2885 23.5414L30.522 24.3353Z" fill="#04BE8C"/>
</svg>
