<svg height="64" viewBox="0 0 64 64.000001" width="64" xmlns="http://www.w3.org/2000/svg"><path d="m39.758002 7.7300533c-2.356861-3.5914088-2.918018-4.0683929-7.715914-4.0683929-.02805 0-.02805 0-.05612 0s-.02807 0-.05612 0c-4.797896 0-5.330995.4769841-7.715915 4.0683929-2.216564 3.3669427-24.21393285 43.6580447-24.21393285 44.7803577 0 1.627358.4208681 3.170538 1.93599305 5.359053 1.5431829 2.216572 4.2086807 3.451117 6.1446747 1.487068 1.318718-1.318721 15.4318271-25.644893 22.2498901-34.847875.813677-1.150371 2.49715-1.150371 3.338885 0 6.818063 9.202982 20.931172 33.529154 22.249891 34.847875 1.935994 1.964049 4.601491.729504 6.144676-1.487068 1.515123-2.188515 1.93599-3.731695 1.93599-5.359053-.028057-1.122313-22.025426-41.441473-24.241998-44.7803577z" fill="#1173b6" stroke-width=".280579"/></svg>