<svg height="512" viewBox="0 0 58 51" width="512" xmlns="http://www.w3.org/2000/svg"><g id="Page-1" fill="none" fill-rule="evenodd"><g id="007---Pancakes" fill-rule="nonzero"><path id="Shape" d="m49.86 32.82c5.04 1.92 8.14 4.56 8.14 7.45 0 5.92-12.98 10.73-29 10.73s-29-4.81-29-10.73c0-2.89 3.1-5.53 8.14-7.45z" fill="#6200ea"/><path id="Shape" d="m50 14c-.1455332 1.2689447-.8989606 2.3878962-2.02 3-1.7355254 1.1132323-3.6452914 1.9278404-5.65 2.41.8570569-1.3214914 1.17553-2.9210136.89-4.47-.0629515-.2350371-.1500833-.4629202-.26-.68-.7961353-1.2625809-2.0964407-2.1221665-3.57-2.36-1.0202353-.2577533-2.0555885-.4514645-3.1-.58-.91-.12-1.82-.19-2.74-.24.2981808-.6527897.4516882-1.36233481.45-2.08.0002711-.62572759-.1149944-1.2461271-.34-1.83 9.36.71 16.34 3.49 16.34 6.83z" fill="#f0c419"/><path id="Shape" d="m50 32c-.001809.279124-.0490955.5560875-.14.82-.3863679.9034605-1.0431404 1.665037-1.88 2.18-2.1376545 1.3290402-4.4995468 2.2575317-6.97 2.74.1919441-.405343.3072183-.8427072.34-1.29.13-1.26-.1-2.58.34-3.79.220257-.540121.5789696-1.0126559 1.04-1.37h.02l.01-.01c1.8488839-.4813102 3.6104542-1.2507317 5.22-2.28 1.3.91 2.02 1.92 2.02 3z" fill="#f3d55b"/><path id="Shape" d="m32.13 38.92c-1.02.05-2.06.08-3.13.08-8.38 0-15.61-1.63-18.98-4-.83685965-.514963-1.49363209-1.2765395-1.88-2.18-.09090454-.2639125-.138191-.540876-.14-.82 0-1.08.72-2.09 2.02-3 3.23 2.26 9.98 3.85 17.9 3.99h.01c.0620825.0649058.1289359.1250738.2.18.77.62 1.93.44 2.7 1.13.82.74.67 2.02.76 3.01.0188903.5778892.206617 1.1375929.54 1.61z" fill="#f3d55b"/><path id="Shape" d="m50 38c0 3.87-9.4 7-21 7s-21-3.13-21-7c0-1.08.72-2.09 2.02-3 3.37 2.37 10.6 4 18.98 4 1.07 0 2.11-.03 3.13-.08.5737911.6600257 1.4287149 1.0057123 2.3.93 1.1184245.0120363 2.2358296-.0716018 3.34-.25 1.56-.25 2.7-.69 3.24-1.86 2.4704532-.4824683 4.8323455-1.4109598 6.97-2.74 1.3.91 2.02 1.92 2.02 3z" fill="#f0c419"/><path id="Shape" d="m50 20c0 1.08-.72 2.09-2.02 3-.9693071.6499001-2.0135284 1.1804047-3.11 1.58-.2506354-.6645676-.6590205-1.2582703-1.19-1.73-.7-.68-1.66-1.46-1.64-2.54.0135834-.2777381.0923764-.5483749.23-.79.02-.04.04-.07.06-.11 2.0047086-.4821596 3.9144746-1.2967677 5.65-2.41 1.3.91 2.02 1.92 2.02 3z" fill="#f3d55b"/><path id="Shape" d="m24.58 20.84c-6.46-.46-11.81-1.91-14.56-3.84-1.12433846-.6084766-1.87906847-1.7293627-2.02-3 0-3.34 6.98-6.12 16.34-6.83-.2250056.5838729-.3402711 1.20427241-.34 1.83-.0006455.79293062.1879083 1.5745718.55 2.28-4.46.47-7.55 1.51-7.55 2.72 0 .78 1.29 1.49 3.4 2.02 1.6023317.3599779 2.9847232 1.3660114 3.82 2.78.1623706.2859579.2867529.5918711.37.91.0866553.3720935.0832269.7594983-.01 1.13z" fill="#f0c419"/><path id="Shape" d="m27.92 26.99c-7.92-.13-14.68-1.72-17.9-3.99-1.3-.91-2.02-1.92-2.02-3s.72-2.09 2.02-3c2.75 1.93 8.1 3.38 14.56 3.84-.31 1.43-1.48 2.94-.64 4.22.74 1.13 2.86 1.14 3.98 1.93z" fill="#f3d55b"/><path id="Shape" d="m27.92 32.99c-7.92-.14-14.67-1.73-17.9-3.99-1.1275689-.6049116-1.88358667-1.7277103-2.02-3 0-1.08.72-2.09 2.02-3 3.22 2.27 9.98 3.86 17.9 3.99.535677.3561209.8071868.9975135.69 1.63-.16 1.43-1.94 3.09-.69 4.37z" fill="#f0c419"/><path id="Shape" d="m50 26c-.1409315 1.2706373-.8956615 2.3915234-2.02 3-1.6095458 1.0292683-3.3711161 1.7986898-5.22 2.28.6980489-.4748756 1.3244195-1.0473649 1.86-1.7.7412358-1.3566937.8930697-2.9581802.42-4.43-.046529-.1928774-.1032757-.3831457-.17-.57 1.0964716-.3995953 2.1406929-.9300999 3.11-1.58 1.3.91 2.02 1.92 2.02 3z" fill="#f0c419"/><path id="Shape" d="m34 9c0 2.7614237-2.2385763 5-5 5s-5-2.2385763-5-5c-.0002711-.62572759.1149944-1.2461271.34-1.83.7552845-1.9131509 2.6031575-3.17029894 4.66-3.17029894s3.9047155 1.25714804 4.66 3.17029894c.2250056.5838729.3402711 1.20427241.34 1.83z" fill="#e64c3c"/><path id="Shape" d="m30 8c-.3461525-.00035747-.6675024-.1797053-.8495332-.47413094s-.1988511-.66205111-.0444668-.97186906c.034-.067 3.416-6.63 11.037-5.543.5467619.07842445.9264244.5852381.848 1.132-.0784245.54676189-.5852381.92642442-1.132.848-3.6284863-.54394357-7.2100971 1.23787288-8.965 4.46-.1703773.33717577-.5162228.54955741-.894.549z" fill="#c03a2b"/><path id="Shape" d="m44.62 29.58c-.5355805.6526351-1.1619511 1.2251244-1.86 1.7l-.01.01h-.02c-.4610304.3573441-.819743.829879-1.04 1.37-.44 1.21-.21 2.53-.34 3.79-.0327817.4472928-.1480559.884657-.34 1.29-.54 1.17-1.68 1.61-3.24 1.86-1.1041704.1783982-2.2215755.2620363-3.34.25-.8712851.0757123-1.7262089-.2699743-2.3-.93-.333383-.4724071-.5211097-1.0321108-.54-1.61-.09-.99.06-2.27-.76-3.01-.77-.69-1.93-.51-2.7-1.13-.0710641-.0549262-.1379175-.1150942-.2-.18h-.01c-1.25-1.28.53-2.94.69-4.37.1171868-.6324865-.154323-1.2738791-.69-1.63-1.12-.79-3.24-.8-3.98-1.93-.84-1.28.33-2.79.64-4.22.0932269-.3705017.0966553-.7579065.01-1.13-.0832471-.3181289-.2076294-.6240421-.37-.91-.8352768-1.4139886-2.2176683-2.4200221-3.82-2.78-2.11-.53-3.4-1.24-3.4-2.02 0-1.21 3.09-2.25 7.55-2.72.8730977 1.70723 2.6456545 2.7647505 4.5627144 2.7221492 1.91706-.0426014 3.6408893-1.1778193 4.4372856-2.9221492.92.05 1.83.12 2.74.24 1.0444115.1285355 2.0797647.3222467 3.1.58 1.4735593.2378335 2.7738647 1.0974191 3.57 2.36.1099167.2170798.1970485.4449629.26.68.28553 1.5489864-.0329431 3.1485086-.89 4.47-.02.04-.04.07-.06.11-.1376236.2416251-.2164166.5122619-.23.79-.02 1.08.94 1.86 1.64 2.54.5309795.4717297.9393646 1.0654324 1.19 1.73.0667243.1868543.123471.3771226.17.57.4730697 1.4718198.3212358 3.0733063-.42 4.43z" fill="#f29c1f"/></g></g></svg>